name Walk2.mot
datacolumns 19
datarows 30
range 2.46500000 2.61000000
endheader

                time	   L_ground_force_vx	   L_ground_force_vy	   L_ground_force_vz	   L_ground_force_px	   L_ground_force_py	   L_ground_force_pz	   R_ground_force_vx	   R_ground_force_vy	   R_ground_force_vz	   R_ground_force_px	   R_ground_force_py	   R_ground_force_pz	   L_ground_torque_x	   L_ground_torque_y	   L_ground_torque_z	   R_ground_torque_x	   R_ground_torque_y	   R_ground_torque_z	
          2.46500000	          0.00000000	          0.00000000	         -0.00000000	         -0.00000000	          0.00000000	         -0.00000000	          2.56096190	         13.49386784	          1.55321118	          0.11887877	          0.00000000	          0.03795765	          0.00000000	          0.00000000	          0.00000000	          0.00000000	         -0.07393362	          0.00000000	
          2.47000000	          0.00000000	          0.00000000	         -0.00000000	         -0.00000000	          0.00000000	         -0.00000000	          0.43533992	          5.71779348	          1.17886897	          0.09069919	          0.00000000	          0.02881985	          0.00000000	          0.00000000	          0.00000000	          0.00000000	         -0.05184983	          0.00000000	
          2.47500000	          0.00000000	          0.00000000	         -0.00000000	         -0.00000000	          0.00000000	         -0.00000000	         -0.96221040	          0.27893930	          0.84557628	          0.06545496	          0.00000000	          0.02068065	          0.00000000	          0.00000000	          0.00000000	          0.00000000	         -0.03358723	          0.00000000	
          2.48000000	          0.00000000	          0.00000000	         -0.00000000	         -0.00000000	          0.00000000	         -0.00000000	         -1.78233314	         -3.23095325	          0.56496727	          0.04408963	          0.00000000	          0.01382556	          0.00000000	          0.00000000	          0.00000000	          0.00000000	         -0.01921943	          0.00000000	
          2.48500000	         -0.00000000	          0.00000000	         -0.00000000	         -0.00000000	          0.00000000	         -0.00000000	         -2.16730096	         -5.22625002	          0.34033607	          0.02690150	          0.00000000	          0.00833608	          0.00000000	          0.00000000	          0.00000000	          0.00000000	         -0.00848562	          0.00000000	
          2.49000000	         -0.00000000	         -0.00000000	         -0.00000000	         -0.00000000	          0.00000000	         -0.00000000	         -2.24276607	         -6.09246199	          0.16936797	          0.01375150	          0.00000000	          0.00415650	          0.00000000	          0.00000000	          0.00000000	          0.00000000	         -0.00093112	          0.00000000	
          2.49500000	         -0.00000000	         -0.00000000	         -0.00000000	         -0.00000000	          0.00000000	         -0.00000000	         -2.11378471	         -6.16610688	          0.04633448	          0.00423108	          0.00000000	          0.00114749	          0.00000000	          0.00000000	          0.00000000	          0.00000000	          0.00398707	          0.00000000	
          2.50000000	         -0.00000000	         -0.00000000	         -0.00000000	         -0.00000000	          0.00000000	         -0.00000000	         -1.86389664	         -5.72566942	         -0.03622902	         -0.00220880	          0.00000000	         -0.00087288	          0.00000000	          0.00000000	          0.00000000	          0.00000000	          0.00682568	          0.00000000	
          2.50500000	         -0.00000000	         -0.00000000	         -0.00000000	         -0.00000000	          0.00000000	         -0.00000000	         -1.55623658	         -4.99039418	         -0.08631011	         -0.00616389	          0.00000000	         -0.00209947	          0.00000000	          0.00000000	          0.00000000	          0.00000000	          0.00810620	          0.00000000	
          2.51000000	         -0.00000000	         -0.00000000	         -0.00000000	          0.00000000	          0.00000000	          0.00000000	         -1.23586065	         -4.12419658	         -0.11160005	         -0.00821272	          0.00000000	         -0.00272002	          0.00000000	          0.00000000	          0.00000000	          0.00000000	          0.00828627	          0.00000000	
          2.51500000	         -0.00000000	         -0.00000000	         -0.00000000	          0.00000000	          0.00000000	          0.00000000	         -0.93266813	         -3.24254676	         -0.11899179	         -0.00887707	          0.00000000	         -0.00290284	          0.00000000	          0.00000000	          0.00000000	          0.00000000	          0.00774640	          0.00000000	
          2.52000000	         -0.00000000	         -0.00000000	          0.00000000	          0.00000000	          0.00000000	          0.00000000	         -0.66447387	         -2.42071556	         -0.11432116	         -0.00860103	          0.00000000	         -0.00279051	          0.00000000	         -0.00000000	          0.00000000	          0.00000000	          0.00678755	          0.00000000	
          2.52500000	         -0.00000000	         -0.00000000	          0.00000000	          0.00000000	          0.00000000	          0.00000000	         -0.43993424	         -1.70224180	         -0.10228455	         -0.00774378	          0.00000000	         -0.00249777	          0.00000000	         -0.00000000	          0.00000000	          0.00000000	          0.00563584	          0.00000000	
          2.53000000	         -0.00000000	         -0.00000000	          0.00000000	          0.00000000	          0.00000000	          0.00000000	         -0.26114785	         -1.10687176	         -0.08647624	         -0.00658160	          0.00000000	         -0.00211250	          0.00000000	         -0.00000000	          0.00000000	          0.00000000	          0.00445155	          0.00000000	
          2.53500000	         -0.00000000	         -0.00000000	          0.00000000	          0.00000000	          0.00000000	          0.00000000	         -0.12584196	         -0.63753231	         -0.06949945	         -0.00531579	          0.00000000	         -0.00169836	          0.00000000	         -0.00000000	          0.00000000	          0.00000000	          0.00334002	          0.00000000	
          2.54000000	         -0.00000000	         -0.00000000	          0.00000000	          0.00000000	          0.00000000	          0.00000000	         -0.02912034	         -0.28613291	         -0.05311599	         -0.00408364	          0.00000000	         -0.00129846	          0.00000000	         -0.00000000	          0.00000000	          0.00000000	          0.00236306	          0.00000000	
          2.54500000	         -0.00000000	         -0.00000000	          0.00000000	          0.00000000	          0.00000000	          0.00000000	          0.03520843	         -0.03815764	         -0.03840877	         -0.00297052	          0.00000000	         -0.00093932	          0.00000000	         -0.00000000	          0.00000000	          0.00000000	          0.00154967	          0.00000000	
          2.55000000	         -0.00000000	         -0.00000000	          0.00000000	          0.00000000	          0.00000000	          0.00000000	          0.07367667	          0.12388191	         -0.02593964	         -0.00202176	          0.00000000	         -0.00063472	          0.00000000	         -0.00000000	          0.00000000	          0.00000000	          0.00090549	          0.00000000	
          2.55500000	          0.00000000	         -0.00000000	          0.00000000	          0.00000000	          0.00000000	          0.00000000	          0.09251866	          0.21799718	         -0.01589192	         -0.00125344	          0.00000000	         -0.00038919	          0.00000000	         -0.00000000	          0.00000000	          0.00000000	          0.00042078	          0.00000000	
          2.56000000	          0.00000000	          0.00000000	          0.00000000	          0.00000000	          0.00000000	          0.00000000	          0.09728457	          0.26111053	         -0.00819165	         -0.00066161	          0.00000000	         -0.00020096	          0.00000000	         -0.00000000	          0.00000000	          0.00000000	          0.00007667	          0.00000000	
          2.56500000	          0.00000000	          0.00000000	          0.00000000	          0.00000000	          0.00000000	          0.00000000	          0.09264681	          0.26810760	         -0.00260576	         -0.00022975	          0.00000000	         -0.00006435	          0.00000000	         -0.00000000	          0.00000000	          0.00000000	         -0.00015007	          0.00000000	
          2.57000000	          0.00000000	          0.00000000	          0.00000000	          0.00000000	          0.00000000	          0.00000000	          0.08234547	          0.25139062	          0.00118245	          0.00006537	          0.00000000	          0.00002834	          0.00000000	         -0.00000000	          0.00000000	          0.00000000	         -0.00028360	          0.00000000	
          2.57500000	          0.00000000	          0.00000000	          0.00000000	          0.00000000	          0.00000000	          0.00000000	          0.06922689	          0.22078839	          0.00351824	          0.00024945	          0.00000000	          0.00008554	          0.00000000	         -0.00000000	          0.00000000	          0.00000000	         -0.00034680	          0.00000000	
          2.58000000	          0.00000000	          0.00000000	          0.00000000	         -0.00000000	          0.00000000	         -0.00000000	          0.05533918	          0.18370207	          0.00473788	          0.00034777	          0.00000000	          0.00011546	          0.00000000	         -0.00000000	          0.00000000	          0.00000000	         -0.00035991	          0.00000000	
          2.58500000	          0.00000000	          0.00000000	          0.00000000	         -0.00000000	          0.00000000	         -0.00000000	          0.04205661	          0.14539073	          0.00514531	          0.00038331	          0.00000000	          0.00012551	          0.00000000	         -0.00000000	          0.00000000	          0.00000000	         -0.00033984	          0.00000000	
          2.59000000	          0.00000000	          0.00000000	         -0.00000000	         -0.00000000	          0.00000000	         -0.00000000	          0.03021258	          0.10932375	          0.00499965	          0.00037579	          0.00000000	          0.00012203	          0.00000000	          0.00000000	          0.00000000	          0.00000000	         -0.00030010	          0.00000000	
          2.59500000	          0.00000000	          0.00000000	         -0.00000000	         -0.00000000	          0.00000000	         -0.00000000	          0.02022779	          0.07754852	          0.00451083	          0.00034125	          0.00000000	          0.00011015	          0.00000000	          0.00000000	          0.00000000	          0.00000000	         -0.00025088	          0.00000000	
          2.60000000	          0.00000000	          0.00000000	         -0.00000000	         -0.00000000	          0.00000000	         -0.00000000	          0.01222496	          0.05103852	          0.00384061	          0.00029211	          0.00000000	          0.00009382	          0.00000000	          0.00000000	          0.00000000	          0.00000000	         -0.00019948	          0.00000000	
          2.60500000	          0.00000000	          0.00000000	         -0.00000000	         -0.00000000	          0.00000000	         -0.00000000	          0.00612605	          0.03000165	          0.00310706	          0.00023749	          0.00000000	          0.00007592	          0.00000000	          0.00000000	          0.00000000	          0.00000000	         -0.00015073	          0.00000000	
          2.61000000	          0.00000000	          0.00000000	         -0.00000000	         -0.00000000	          0.00000000	         -0.00000000	          0.00173044	          0.01413834	          0.00239092	          0.00018369	          0.00000000	          0.00005845	          0.00000000	          0.00000000	          0.00000000	          0.00000000	         -0.00010756	          0.00000000	
